# Blender v2.78 (sub 0) OBJ File: 'wall.blend'
# www.blender.org
mtllib wall.mtl
o Plane_Plane.003
v -0.102672 0.074031 2.166303
v 0.147811 0.074031 2.166303
v -0.102672 0.074031 1.885430
v -3.711416 0.074031 2.166303
v -3.711416 0.074031 1.885430
v -3.457291 0.074031 2.166303
v -3.457291 0.074031 1.885430
v -3.711416 0.074031 -2.327668
v -3.457291 0.074031 -2.327668
v -3.711416 0.074031 -2.608541
v -3.457291 0.074031 -2.608541
v -0.103615 0.074031 -2.327668
v -0.107191 0.074031 -2.608541
v 0.150509 0.074031 -2.327668
v 0.150509 0.074031 -2.608541
v 3.500610 0.074031 -2.327668
v 3.500610 0.074031 -2.608541
v 3.758310 0.074031 -2.327668
v 3.758310 0.074031 -2.608541
v 3.500610 0.074031 1.885430
v 3.758310 0.074031 1.885430
v 3.500610 0.074031 2.166303
v 3.758310 0.074031 2.166303
v 0.147811 0.074031 1.885430
v -0.102672 1.277572 1.885430
v -0.102672 1.277572 2.166303
v 0.147811 1.277572 2.166303
v -3.711416 1.277572 1.885430
v -3.711416 1.277572 2.166303
v -3.457291 1.277572 2.166303
v -3.457291 1.277572 1.885430
v -3.457291 1.277572 -2.327668
v -3.711416 1.277572 -2.327668
v -3.457291 1.277572 -2.608541
v -3.711416 1.277572 -2.608541
v -0.103615 1.277572 -2.327668
v -0.107191 1.277572 -2.608541
v 0.150509 1.277572 -2.327668
v 0.150509 1.277572 -2.608541
v 3.500610 1.277572 -2.327668
v 3.500610 1.277572 -2.608541
v 3.758310 1.277572 -2.327668
v 3.758310 1.277572 -2.608541
v 3.500610 1.277572 1.885430
v 3.758310 1.277572 1.885430
v 3.500610 1.277572 2.166303
v 3.758310 1.277572 2.166303
v 0.147811 1.277572 1.885430
v 0.149160 0.074031 1.002049
v -0.103143 0.074031 1.002049
v 0.149160 1.277572 1.002049
v -0.103143 1.277572 1.002049
v 0.149451 0.074031 0.285193
v 0.149451 1.277572 0.285193
v -0.103245 0.074031 0.285193
v -0.103245 1.277572 0.285193
v 0.149980 0.074031 -1.021237
v 0.149980 1.277572 -1.021237
v -0.103430 0.074031 -1.021237
v -0.103430 1.277572 -1.021237
v 0.150127 0.074031 -1.383396
v 0.150127 1.277572 -1.383396
v -0.103481 0.074031 -1.383396
v -0.103481 1.277572 -1.383396
v 3.500610 1.088781 -2.327668
v 0.150509 1.088781 -2.327668
v 0.147811 1.088781 1.885430
v 3.500610 1.088781 1.885430
v 0.149160 1.088781 1.002049
v 0.149451 1.088781 0.285193
v 0.149980 1.088781 -1.021237
v 0.150127 1.088781 -1.383396
v 0.150509 0.699400 -2.327668
v 0.147811 0.699400 1.885430
v 3.500610 0.699400 1.885430
v 3.500610 0.699400 -2.327668
v 0.149160 0.699400 1.002049
v 0.149451 0.699400 0.285193
v 0.149980 0.699400 -1.021237
v 0.150127 0.699400 -1.383396
v -0.103615 0.685945 -2.327668
v -3.457291 0.685945 -2.327668
v -3.457291 0.685945 1.885430
v -0.102672 0.685945 1.885430
v -0.103143 0.685945 1.002049
v -0.103245 0.685945 0.285193
v -0.103430 0.685945 -1.021237
v -0.103481 0.685945 -1.383396
v -0.103615 1.087439 -2.327668
v -0.102672 1.087439 1.885430
v -0.103143 1.087439 1.002049
v -0.103245 1.087439 0.285193
v -0.103430 1.087439 -1.021237
v -0.103481 1.087439 -1.383396
v -3.457291 1.087439 -2.327668
v -3.457291 1.087439 1.885430
vn 0.0000 -1.0000 0.0000
vn 0.0000 1.0000 0.0000
vn 0.0000 0.0000 1.0000
vn 0.0000 0.0000 -1.0000
vn 1.0000 0.0000 0.0000
vn -1.0000 0.0000 0.0000
vn 1.0000 0.0000 0.0004
vn -1.0000 0.0000 0.0005
vn -1.0000 0.0000 0.0001
vn 1.0000 0.0000 0.0015
vn 0.0053 -1.0000 0.0000
vn -0.0530 0.9986 -0.0000
usemtl None
s off
f 1//1 3//1 24//1 2//1
f 6//1 4//1 5//1 7//1
f 1//1 6//1 7//1 3//1
f 5//1 8//1 9//1 7//1
f 8//1 10//1 11//1 9//1
f 11//1 13//1 12//1 9//1
f 13//1 15//1 14//1 12//1
f 15//1 17//1 16//1 14//1
f 17//1 19//1 18//1 16//1
f 18//1 21//1 20//1 16//1
f 21//1 23//1 22//1 20//1
f 22//1 2//1 24//1 20//1
f 63//1 12//1 14//1 61//1
f 26//2 27//2 48//2 25//2
f 30//2 31//2 28//2 29//2
f 26//2 25//2 31//2 30//2
f 28//2 31//2 32//2 33//2
f 33//2 32//2 34//2 35//2
f 34//2 32//2 36//2 37//2
f 37//2 36//2 38//2 39//2
f 39//2 38//2 40//2 41//2
f 41//2 40//2 42//2 43//2
f 42//2 40//2 44//2 45//2
f 45//2 44//2 46//2 47//2
f 46//2 44//2 48//2 27//2
f 64//2 62//2 38//2 36//2
f 66//3 65//3 40//3 38//3
f 2//3 22//3 46//3 27//3
f 13//4 11//4 34//4 37//4
f 23//5 21//5 45//5 47//5
f 18//5 19//5 43//5 42//5
f 1//3 2//3 27//3 26//3
f 95//3 89//3 36//3 32//3
f 8//6 5//6 28//6 33//6
f 19//4 17//4 41//4 43//4
f 5//6 4//6 29//6 28//6
f 72//7 66//7 38//7 62//7
f 96//5 95//5 32//5 31//5
f 6//3 1//3 26//3 30//3
f 15//4 13//4 37//4 39//4
f 68//4 67//4 48//4 44//4
f 11//4 10//4 35//4 34//4
f 91//8 90//8 25//8 52//8
f 10//6 8//6 33//6 35//6
f 21//5 18//5 42//5 45//5
f 4//3 6//3 30//3 29//3
f 65//6 68//6 44//6 40//6
f 90//4 96//4 31//4 25//4
f 17//4 15//4 39//4 41//4
f 22//3 23//3 47//3 46//3
f 92//9 91//9 52//9 56//9
f 67//10 69//10 51//10 48//10
f 25//2 48//2 51//2 52//2
f 3//1 50//1 49//1 24//1
f 93//9 92//9 56//9 60//9
f 69//7 70//7 54//7 51//7
f 52//2 51//2 54//2 56//2
f 50//1 55//1 53//1 49//1
f 94//9 93//9 60//9 64//9
f 70//7 71//7 58//7 54//7
f 56//2 54//2 58//2 60//2
f 55//1 59//1 57//1 53//1
f 89//9 94//9 64//9 36//9
f 71//7 72//7 62//7 58//7
f 60//2 58//2 62//2 64//2
f 59//1 63//1 61//1 57//1
f 78//7 79//7 71//7 70//7
f 74//10 77//10 69//10 67//10
f 76//6 75//6 68//6 65//6
f 75//4 74//4 67//4 68//4
f 80//7 73//7 66//7 72//7
f 73//3 76//3 65//3 66//3
f 14//3 16//3 76//3 73//3
f 61//7 14//7 73//7 80//7
f 20//4 24//4 74//4 75//4
f 16//6 20//6 75//6 76//6
f 24//10 49//10 77//10 74//10
f 53//7 57//7 79//7 78//7
f 57//7 61//7 80//7 79//7
f 12//9 63//9 88//9 81//9
f 63//9 59//9 87//9 88//9
f 59//9 55//9 86//9 87//9
f 3//4 7//4 83//4 84//4
f 50//8 3//8 84//8 85//8
f 7//5 9//5 82//5 83//5
f 9//3 12//3 81//3 82//3
f 81//9 88//9 94//9 89//9
f 87//9 86//9 92//9 93//9
f 84//4 83//4 96//4 90//4
f 85//8 84//8 90//8 91//8
f 83//5 82//5 95//5 96//5
f 82//3 81//3 89//3 95//3
f 55//3 53//3 78//3 86//3
f 86//3 78//3 70//3 92//3
f 92//11 70//11 69//11 91//11
f 91//4 69//4 77//4 85//4
f 85//4 77//4 49//4 50//4
f 71//11 93//11 94//11 72//11
f 72//3 94//3 88//3 80//3
f 80//12 88//12 87//12 79//12
f 79//4 87//4 93//4 71//4
